<svg width="234" height="234" viewBox="0 0 234 234" fill="none" xmlns="http://www.w3.org/2000/svg">
<path d="M24.3703 112.699L25.1448 115.336C25.2707 115.764 25.6053 116.099 26.0336 116.225L28.6703 116.999L26.0336 117.774C25.6053 117.9 25.2707 118.234 25.1448 118.662L24.3703 121.299L23.5958 118.662C23.4699 118.234 23.1352 117.9 22.707 117.774L20.0703 116.999L22.707 116.225C23.1352 116.099 23.4699 115.764 23.5958 115.336L24.3703 112.699Z" fill="#E0E0E0"/>
<path d="M120.62 207.346L121.395 209.982C121.521 210.411 121.855 210.745 122.284 210.871L124.92 211.646L122.284 212.42C121.855 212.546 121.521 212.881 121.395 213.309L120.62 215.946L119.846 213.309C119.72 212.881 119.385 212.546 118.957 212.42L116.32 211.646L118.957 210.871C119.385 210.745 119.72 210.411 119.846 209.982L120.62 207.346Z" fill="#E0E0E0"/>
<path d="M31.2567 134.377L31.7687 136.12C31.852 136.403 32.0734 136.625 32.356 136.708L34.0993 137.22L32.356 137.732C32.0729 137.815 31.8515 138.036 31.7687 138.319L31.2567 140.062L30.7447 138.319C30.6614 138.036 30.4405 137.814 30.1574 137.732L28.4141 137.22L30.1574 136.708C30.4405 136.624 30.6619 136.403 30.7447 136.12L31.2567 134.377Z" fill="#E0E0E0"/>
<path d="M192.87 121.256L193.645 123.893C193.771 124.321 194.105 124.655 194.534 124.781L197.17 125.556L194.534 126.33C194.105 126.456 193.771 126.791 193.645 127.219L192.87 129.856L192.096 127.219C191.97 126.791 191.635 126.456 191.207 126.33L188.57 125.556L191.207 124.781C191.635 124.655 191.97 124.321 192.096 123.893L192.87 121.256Z" fill="#E0E0E0"/>
<path d="M174.605 30.8652L175.379 33.5019C175.505 33.9302 175.84 34.2648 176.268 34.3907L178.905 35.1652L176.268 35.9398C175.84 36.0656 175.505 36.4003 175.379 36.8285L174.605 39.4652L173.83 36.8285C173.704 36.4003 173.37 36.0656 172.941 35.9398L170.305 35.1652L172.941 34.3907C173.37 34.2648 173.704 33.9302 173.83 33.5019L174.605 30.8652Z" fill="#E0E0E0"/>
<path d="M166.117 61.0508L166.955 63.9014C167.09 64.3642 167.453 64.726 167.915 64.8622L170.766 65.6994L167.915 66.5367C167.453 66.6729 167.091 67.0346 166.955 67.4975L166.117 70.3481L165.28 67.4975C165.144 67.0346 164.782 66.6729 164.319 66.5367L161.469 65.6994L164.319 64.8622C164.782 64.726 165.144 64.3642 165.28 63.9014L166.117 61.0508Z" fill="#E0E0E0"/>
<path d="M177.444 128.857L177.956 130.601C178.039 130.884 178.261 131.105 178.544 131.188L180.287 131.7L178.544 132.212C178.26 132.295 178.039 132.517 177.956 132.799L177.444 134.543L176.932 132.799C176.849 132.516 176.628 132.295 176.345 132.212L174.602 131.7L176.345 131.188C176.628 131.105 176.849 130.884 176.932 130.601L177.444 128.857Z" fill="#E0E0E0"/>
<path d="M36.6161 82.9941L37.1281 84.7374C37.2114 85.0206 37.4327 85.2419 37.7154 85.3248L39.4587 85.8368L37.7154 86.3488C37.4323 86.4321 37.2109 86.6534 37.1281 86.9361L36.6161 88.6794L36.1041 86.9361C36.0208 86.653 35.7999 86.4316 35.5167 86.3488L33.7734 85.8368L35.5167 85.3248C35.7999 85.2415 36.0212 85.0201 36.1041 84.7374L36.6161 82.9941Z" fill="#E0E0E0"/>
<path d="M92.1161 13.2734L92.6281 15.0167C92.7114 15.2999 92.9327 15.5212 93.2154 15.6041L94.9587 16.1161L93.2154 16.6281C92.9323 16.7114 92.7109 16.9327 92.6281 17.2154L92.1161 18.9587L91.6041 17.2154C91.5208 16.9323 91.2999 16.7109 91.0167 16.6281L89.2734 16.1161L91.0167 15.6041C91.2999 15.5208 91.5212 15.2994 91.6041 15.0167L92.1161 13.2734Z" fill="#E0E0E0"/>
<path d="M59.6569 28.5723L60.5353 31.5618C60.6781 32.0472 61.0576 32.4267 61.5429 32.5695L64.5325 33.4479L61.5429 34.3263C61.0576 34.4691 60.6781 34.8486 60.5353 35.3339L59.6569 38.3235L58.7784 35.3339C58.6357 34.8486 58.2562 34.4691 57.7708 34.3263L54.7812 33.4479L57.7708 32.5695C58.2562 32.4267 58.6357 32.0472 58.7784 31.5618L59.6569 28.5723Z" fill="#E0E0E0"/>
<path d="M64.0223 61.4219L64.5343 63.1652C64.6176 63.4483 64.839 63.6697 65.1216 63.7525L66.8649 64.2645L65.1216 64.7765C64.8385 64.8598 64.6171 65.0812 64.5343 65.3638L64.0223 67.1071L63.5103 65.3638C63.427 65.0807 63.2057 64.8593 62.923 64.7765L61.1797 64.2645L62.923 63.7525C63.2061 63.6692 63.4275 63.4483 63.5103 63.1652L64.0223 61.4219Z" fill="#E0E0E0"/>
<path d="M206.655 164.679C188.266 160.776 173.906 170.23 173.906 170.23C188.208 177.187 206.655 164.679 206.655 164.679Z" fill="#E0E0E0"/>
<path d="M154.383 163.75C154.376 175.286 162.122 183.27 162.122 183.27C164.557 173.97 154.383 163.75 154.383 163.75Z" fill="#E0E0E0"/>
<path d="M166.5 182.05C180.097 184.716 191.289 177.499 191.289 177.499C180.89 172.504 166.5 182.05 166.5 182.05Z" fill="#E0E0E0"/>
<path d="M181.544 158.193C181.333 158.046 175.407 166.131 168.308 176.251C161.207 186.374 155.623 194.697 155.834 194.845C156.044 194.993 161.97 186.908 169.071 176.785C176.169 166.666 181.755 158.341 181.544 158.193Z" fill="#E0E0E0"/>
<path d="M201.752 136.27C201.752 136.27 181.53 143.402 178.953 162.385C178.953 162.385 196.291 156.538 201.752 136.27Z" fill="#E0E0E0"/>
<path d="M171.303 138.477C171.303 138.477 159.319 156.257 168.565 173.036C168.565 173.036 179.001 158.005 171.303 138.477Z" fill="#E0E0E0"/>
<path d="M52.243 146.922C45.6606 164.803 53.0616 180.581 53.0616 180.581C62.1155 167.242 52.243 146.922 52.243 146.922Z" fill="#E0E0E0"/>
<path d="M44.8047 202.128C56.3769 203.808 65.5104 197.195 65.5104 197.195C56.5337 193.403 44.8047 202.128 44.8047 202.128Z" fill="#E0E0E0"/>
<path d="M64.878 192.618C69.5243 179.364 63.9079 167.09 63.9079 167.09C57.3886 176.798 64.878 192.618 64.878 192.618Z" fill="#E0E0E0"/>
<path d="M43.1673 174.064C42.9885 174.254 50.2406 181.373 59.3629 189.962C68.4889 198.555 76.0289 205.364 76.2076 205.175C76.3864 204.985 69.1357 197.868 60.0101 189.275C50.8879 180.686 43.3461 173.875 43.1673 174.064Z" fill="#E0E0E0"/>
<path d="M24.0938 150.594C24.0938 150.594 28.3156 171.915 46.9869 177.254C46.9869 177.254 43.6356 159.012 24.0938 150.594Z" fill="#E0E0E0"/>
<path d="M21.8984 181.448C21.8984 181.448 37.9976 196.051 56.1719 189.208C56.1719 189.208 42.607 176.558 21.8984 181.448Z" fill="#E0E0E0"/>
<path d="M71.5365 68.6074C63.5903 84.9065 69.0851 100.555 69.0851 100.555C78.9356 88.7927 71.5365 68.6074 71.5365 68.6074Z" fill="#E0E0E0"/>
<path d="M59.1484 120.149C69.9438 122.849 79.2252 117.463 79.2252 117.463C71.0899 113.012 59.1484 120.149 59.1484 120.149Z" fill="#E0E0E0"/>
<path d="M79.0877 113.072C84.7575 100.969 80.6162 88.8086 80.6162 88.8086C73.5134 97.3753 79.0877 113.072 79.0877 113.072Z" fill="#E0E0E0"/>
<path d="M60.301 93.4324C60.1134 93.5953 66.2975 101.03 74.1112 110.037C81.9278 119.047 88.4143 126.217 88.6015 126.054C88.7891 125.892 82.6064 118.458 74.7898 109.448C66.9757 100.442 60.4882 93.27 60.301 93.4324Z" fill="#E0E0E0"/>
<path d="M44.4922 69.3652C44.4922 69.3652 46.4456 89.9568 63.6119 96.8017C63.6119 96.8017 62.1873 79.2091 44.4922 69.3652Z" fill="#E0E0E0"/>
<path d="M39.4375 98.3738C39.4375 98.3738 53.2805 113.742 71.1436 109.006C71.1436 109.006 59.5133 95.7296 39.4375 98.3738Z" fill="#E0E0E0"/>
<path d="M208.476 104.344C191.702 97.4577 176.438 103.942 176.438 103.942C188.805 113.021 208.476 104.344 208.476 104.344Z" fill="#E0E0E0"/>
<path d="M156.232 95.3086C154.228 106.255 160.196 115.172 160.196 115.172C164.118 106.769 156.232 95.3086 156.232 95.3086Z" fill="#E0E0E0"/>
<path d="M164.547 114.767C176.989 119.65 188.858 114.739 188.858 114.739C179.855 108.199 164.547 114.767 164.547 114.767Z" fill="#E0E0E0"/>
<path d="M182.959 94.73C182.784 94.5531 175.76 101.201 167.272 109.575C158.78 117.952 152.04 124.884 152.214 125.06C152.388 125.237 159.411 118.591 167.903 110.214C176.391 101.84 183.133 94.9064 182.959 94.73Z" fill="#E0E0E0"/>
<path d="M205.969 77.4219C205.969 77.4219 185.545 80.689 179.812 98.2582C179.812 98.2582 197.278 95.7108 205.969 77.4219Z" fill="#E0E0E0"/>
<path d="M176.672 74.2441C176.672 74.2441 162.22 89.0423 168.09 106.566C168.09 106.566 180.596 94.1089 176.672 74.2441Z" fill="#E0E0E0"/>
<path d="M118.88 34.4259C118.813 34.4259 118.758 29.0463 118.758 22.4119C118.758 15.7752 118.813 10.3965 118.88 10.3965C118.947 10.3965 119.002 15.7747 119.002 22.4119C119.002 29.0463 118.947 34.4259 118.88 34.4259Z" fill="#263238"/>
<path d="M96.1578 40.8765C96.1101 40.9243 92.7447 37.6361 88.6417 33.5327C84.5374 29.4283 81.2497 26.0639 81.2974 26.0161C81.3451 25.9684 84.7096 29.2561 88.8139 33.3605C92.9169 37.4634 96.2051 40.8288 96.1578 40.8765Z" fill="#263238"/>
<path d="M153.341 26.2348C153.388 26.2821 149.703 30.1024 145.109 34.766C140.514 39.4315 136.751 43.1745 136.704 43.1273C136.656 43.08 140.34 39.2607 144.936 34.5952C149.529 29.9311 153.293 26.1875 153.341 26.2348Z" fill="#263238"/>
<path d="M105.156 34.1783C105.097 34.211 104.093 32.5304 102.914 30.4244C101.735 28.318 100.827 26.5845 100.885 26.5513C100.944 26.5185 101.947 28.1986 103.127 30.3051C104.306 32.4111 105.214 34.1455 105.156 34.1783Z" fill="#263238"/>
<path d="M136.685 25.0728C136.715 25.0953 136.341 25.6218 135.762 26.4871C135.183 27.3525 134.408 28.5646 133.632 29.9499C132.858 31.3361 132.229 32.6301 131.796 33.5764C131.361 34.5227 131.108 35.1166 131.073 35.103C131.058 35.0969 131.102 34.9411 131.197 34.6645C131.29 34.387 131.439 33.9915 131.638 33.5076C132.033 32.5398 132.641 31.2252 133.42 29.8305C134.201 28.4373 135.002 27.2317 135.621 26.3884C135.929 25.9662 136.188 25.6316 136.376 25.407C136.563 25.1823 136.672 25.063 136.685 25.0728Z" fill="#263238"/>
<path d="M155.391 50.3613C155.412 50.4254 153.767 51.0048 151.717 51.6548C149.667 52.3053 147.99 52.7804 147.969 52.7162C147.949 52.6521 149.593 52.0732 151.643 51.4227C153.693 50.7722 155.371 50.2972 155.391 50.3613Z" fill="#263238"/>
<path d="M81.3104 53.1089C81.2987 53.1753 79.6738 52.9437 77.681 52.5922C75.6878 52.2403 74.0821 51.9019 74.0938 51.8355C74.1055 51.7695 75.7304 52.0007 77.7231 52.3521C79.7159 52.7041 81.3221 53.0429 81.3104 53.1089Z" fill="#263238"/>
<path d="M82.8399 37.8086L83.5316 40.1631C83.644 40.5455 83.943 40.844 84.3249 40.9564L86.6794 41.6481L84.3249 42.3398C83.9426 42.4521 83.644 42.7511 83.5316 43.1335L82.8399 45.488L82.1482 43.1335C82.0359 42.7511 81.7369 42.4526 81.3545 42.3398L79 41.6481L81.3545 40.9564C81.7369 40.844 82.0359 40.545 82.1482 40.1631L82.8399 37.8086Z" fill="#FF725E"/>
<path d="M133.23 13.375L133.922 15.7295C134.034 16.1119 134.333 16.4104 134.715 16.5228L137.07 17.2145L134.715 17.9062C134.333 18.0185 134.034 18.3175 133.922 18.6994L133.23 21.0539L132.538 18.6994C132.426 18.3171 132.127 18.0185 131.745 17.9062L129.391 17.2145L131.745 16.5228C132.127 16.4104 132.426 16.1114 132.538 15.7295L133.23 13.375Z" fill="#FF725E"/>
<path d="M83.4578 59.5566L83.761 60.5895C83.8102 60.7571 83.9417 60.8881 84.1092 60.9377L85.1421 61.241L84.1092 61.5442C83.9417 61.5934 83.8102 61.7244 83.761 61.8924L83.4578 62.9253L83.1545 61.8924C83.1054 61.7249 82.9743 61.5934 82.8063 61.5442L81.7734 61.241L82.8063 60.9377C82.9739 60.8886 83.1054 60.7575 83.1545 60.5895L83.4578 59.5566Z" fill="#FF725E"/>
<path d="M107.817 19.0449L108.12 20.0778C108.17 20.2453 108.301 20.3769 108.469 20.426L109.501 20.7293L108.469 21.0325C108.301 21.0817 108.17 21.2132 108.12 21.3807L107.817 22.4136L107.514 21.3807C107.465 21.2132 107.334 21.0817 107.166 21.0325L106.133 20.7293L107.166 20.426C107.333 20.3769 107.465 20.2453 107.514 20.0778L107.817 19.0449Z" fill="#FF725E"/>
<path d="M150.368 39.8438L150.905 41.6741C150.992 41.9713 151.225 42.2039 151.522 42.2909L153.353 42.8287L151.522 43.3664C151.225 43.4539 150.992 43.686 150.905 43.9832L150.368 45.8136L149.83 43.9832C149.742 43.686 149.51 43.4534 149.213 43.3664L147.383 42.8287L149.213 42.2909C149.51 42.2034 149.743 41.9713 149.83 41.6741L150.368 39.8438Z" fill="#FF725E"/>
<path d="M151.422 62.3867L151.691 63.3017C151.734 63.4505 151.85 63.5665 151.999 63.6101L152.914 63.8792L151.999 64.1478C151.85 64.1913 151.734 64.3079 151.691 64.4562L151.422 65.3712L151.153 64.4562C151.11 64.3074 150.993 64.1913 150.845 64.1478L149.93 63.8792L150.845 63.6101C150.993 63.5665 151.11 63.4505 151.153 63.3017L151.422 62.3867Z" fill="#FF725E"/>
<path d="M130.123 197.735C130.123 197.735 128.289 195.682 130.355 192.379C130.355 192.379 126.9 184.796 126.877 184.746C126.855 184.697 121.684 190.617 127.73 196.029L130.123 197.735Z" fill="#FF725E"/>
<path opacity="0.3" d="M130.123 197.735C130.123 197.735 128.289 195.682 130.355 192.379C130.355 192.379 126.9 184.796 126.877 184.746C126.855 184.697 121.684 190.617 127.73 196.029L130.123 197.735Z" fill="black"/>
<path d="M144.543 221.431C143.392 221.318 109.935 149.893 102.85 125.954C95.7645 102.014 101.182 64.2044 104.622 58.046C107.381 53.1067 110.48 53.2892 110.48 53.2892C110.48 53.2892 111.253 46.3956 114.389 44.3411C117.054 42.5954 119.535 44.2376 119.535 44.2376C123.966 39.1528 129.729 42.741 130.101 47.9376C130.101 47.9376 135.006 42.5865 139.366 51.3175C143.727 60.0486 148.086 88.2133 148.086 88.2133C148.086 88.2133 148.086 76.0977 156.219 76.5722C156.724 76.6017 157.152 76.9658 157.271 77.4577L158.822 87.7504C158.822 87.7504 161.237 96.2306 162.871 99.047C164.507 101.863 167.434 128.878 166.344 131.359C165.255 133.84 156.807 153.273 155.989 157.217C155.171 161.159 155.717 163.976 157.351 166.229C158.987 168.483 180.515 198.337 180.515 198.337C180.515 198.337 170.159 223.966 144.543 221.431Z" fill="#AE7461"/>
<g opacity="0.2">
<path d="M114.174 44.8223C114.784 46.0873 115.103 47.4917 115.099 48.8962C116.574 48.4006 118.212 48.3547 119.686 48.8513C121.161 49.3478 122.458 50.4008 123.171 51.7842C123.766 52.9388 123.943 54.2557 124.135 55.5404C124.69 59.2437 125.448 62.9161 126.407 66.5356H118.719L111.822 57.7381L110.484 53.2874C111.221 49.0338 112.242 45.6071 114.174 44.8223Z" fill="black"/>
</g>
<path d="M151.324 118.136C151.317 118.14 151.24 118.028 151.099 117.81C150.961 117.589 150.775 117.252 150.575 116.799C150.182 115.892 149.794 114.488 149.699 112.718C149.572 110.948 149.79 108.845 149.952 106.529C150.026 105.371 150.075 104.15 149.972 102.896C149.847 101.645 149.673 100.338 149.487 99.0118C149.295 97.6846 149.066 96.3948 148.761 95.17C148.414 93.9495 148.229 92.7196 148.128 91.558C147.926 89.2259 148.06 87.1092 148.342 85.3649C148.63 83.6193 149.073 82.2476 149.46 81.3401C149.63 80.8759 149.825 80.5427 149.934 80.3073C150.05 80.0751 150.114 79.9553 150.122 79.9591C150.129 79.9628 150.079 80.0901 149.978 80.3283C149.884 80.5698 149.704 80.9077 149.548 81.3748C149.191 82.2883 148.776 83.6567 148.512 85.3921C148.254 87.1265 148.139 89.2273 148.352 91.5379C148.46 92.6948 148.642 93.8928 148.992 95.112C149.303 96.3466 149.535 97.6443 149.728 98.9767C149.915 100.312 150.086 101.606 150.21 102.877C150.311 104.15 150.256 105.381 150.176 106.544C150 108.87 149.767 110.954 149.871 112.708C149.943 114.463 150.301 115.853 150.663 116.762C150.847 117.216 151.018 117.558 151.141 117.785C151.268 118.01 151.331 118.131 151.324 118.136Z" fill="#6F4439"/>
<path d="M134.065 129.838C134.057 129.836 134.067 129.756 134.094 129.605C134.13 129.427 134.173 129.21 134.225 128.947C134.282 128.661 134.357 128.312 134.471 127.914C134.582 127.515 134.689 127.055 134.859 126.563C135.018 126.066 135.192 125.522 135.419 124.952C135.626 124.374 135.893 123.775 136.17 123.143C136.75 121.892 137.457 120.546 138.32 119.206C139.19 117.871 140.121 116.669 141.025 115.626C141.493 115.119 141.925 114.625 142.37 114.203C142.799 113.764 143.221 113.379 143.614 113.035C143.995 112.68 144.371 112.393 144.692 112.132C145.011 111.868 145.298 111.657 145.538 111.491C145.758 111.338 145.939 111.211 146.089 111.107C146.216 111.022 146.285 110.98 146.29 110.987C146.295 110.994 146.235 111.049 146.118 111.147C145.976 111.26 145.805 111.398 145.596 111.566C145.366 111.742 145.088 111.964 144.779 112.237C144.467 112.507 144.102 112.801 143.73 113.163C143.347 113.513 142.934 113.902 142.514 114.344C142.078 114.77 141.654 115.266 141.195 115.773C140.307 116.817 139.389 118.013 138.526 119.338C137.67 120.668 136.962 122 136.374 123.237C136.094 123.862 135.822 124.453 135.608 125.025C135.374 125.588 135.192 126.125 135.023 126.616C134.843 127.103 134.725 127.557 134.602 127.951C134.477 128.344 134.388 128.688 134.318 128.969C134.248 129.227 134.19 129.44 134.143 129.615C134.1 129.763 134.074 129.839 134.065 129.838Z" fill="#6F4439"/>
<path d="M155.963 158.559C155.977 158.57 155.836 158.76 155.57 159.095C155.307 159.433 154.904 159.903 154.387 160.467C153.354 161.595 151.824 163.068 149.958 164.478C148.089 165.887 146.252 166.954 144.881 167.632C144.196 167.973 143.632 168.229 143.234 168.388C142.838 168.549 142.617 168.631 142.61 168.615C142.603 168.6 142.812 168.489 143.195 168.301C143.579 168.117 144.13 167.838 144.802 167.479C146.146 166.764 147.955 165.682 149.811 164.283C151.664 162.883 153.202 161.441 154.262 160.348C154.792 159.802 155.214 159.351 155.498 159.033C155.786 158.718 155.951 158.548 155.963 158.559Z" fill="#6F4439"/>
<path d="M141.307 194.171C141.3 194.174 141.257 194.095 141.182 193.943C141.098 193.764 140.994 193.542 140.867 193.27C140.582 192.653 140.194 191.814 139.721 190.792C138.747 188.703 137.354 185.839 135.697 182.738C134.037 179.637 132.427 176.888 131.23 174.919C130.641 173.958 130.158 173.17 129.803 172.591C129.647 172.334 129.52 172.124 129.418 171.956C129.332 171.809 129.291 171.73 129.298 171.725C129.305 171.72 129.36 171.79 129.459 171.928C129.571 172.09 129.711 172.293 129.882 172.539C130.247 173.071 130.758 173.853 131.376 174.828C132.612 176.776 134.249 179.516 135.911 182.622C137.572 185.729 138.942 188.61 139.878 190.72C140.347 191.774 140.713 192.633 140.954 193.232C141.064 193.511 141.155 193.74 141.227 193.923C141.287 194.082 141.315 194.167 141.307 194.171Z" fill="#6F4439"/>
<path d="M142.484 99.6628C142.5 99.7284 141.28 100.079 139.759 100.445C138.238 100.812 136.993 101.057 136.977 100.991C136.961 100.925 138.181 100.575 139.702 100.209C141.222 99.8421 142.468 99.5978 142.484 99.6628Z" fill="#6F4439"/>
<path d="M134.295 89.4382C134.291 89.4396 134.277 89.4049 134.253 89.3361C134.225 89.2533 134.193 89.1527 134.152 89.0296C134.069 88.7586 133.94 88.3608 133.794 87.8427C133.494 86.8085 133.092 85.3024 132.652 83.4281C131.769 79.6799 130.76 74.4495 130.028 68.6182C129.297 62.7865 128.993 57.4578 129.15 53.6039C129.224 51.6776 129.427 50.1229 129.67 49.0708C129.911 48.0159 130.195 47.4824 130.195 47.4824C130.199 47.4843 130.19 47.5208 130.168 47.5901C130.141 47.6729 130.108 47.7731 130.068 47.8957C130.017 48.0276 129.972 48.1961 129.923 48.3969C129.87 48.5963 129.808 48.8261 129.763 49.0909C129.549 50.1416 129.373 51.6897 129.322 53.6095C129.209 57.4508 129.539 62.765 130.269 68.5878C131.001 74.4097 131.982 79.6368 132.82 83.3893C133.239 85.2659 133.614 86.7766 133.886 87.8175C134.019 88.322 134.123 88.7221 134.2 89.016C134.231 89.1414 134.256 89.2444 134.277 89.3291C134.292 89.4002 134.299 89.4372 134.295 89.4382Z" fill="#6F4439"/>
<path d="M127.038 98.1196C127.034 98.1215 127.012 98.0784 126.973 97.9932C126.93 97.895 126.874 97.7695 126.805 97.6123C126.656 97.2594 126.447 96.7657 126.181 96.1376C126.047 95.8152 125.898 95.4586 125.736 95.0696C125.585 94.6728 125.422 94.2432 125.248 93.7826C124.906 92.856 124.49 91.81 124.111 90.6255C123.913 90.0354 123.706 89.4176 123.491 88.7746C123.279 88.1297 123.091 87.4487 122.879 86.7491C122.441 85.353 122.065 83.8358 121.648 82.245C120.875 79.0486 120.157 75.5012 119.621 71.7431C119.104 67.9804 118.825 64.3712 118.691 61.0849C118.653 59.4408 118.601 57.8782 118.637 56.4157C118.65 55.6846 118.642 54.978 118.67 54.2998C118.7 53.6222 118.729 52.9712 118.756 52.3497C118.795 51.1067 118.908 49.9867 118.981 49.0016C119.022 48.5107 119.06 48.053 119.096 47.6299C119.144 47.211 119.189 46.8273 119.229 46.4805C119.311 45.8038 119.376 45.2716 119.422 44.8916C119.445 44.7213 119.463 44.5855 119.478 44.4793C119.492 44.3866 119.501 44.3394 119.505 44.3398C119.51 44.3403 119.509 44.3885 119.503 44.4826C119.494 44.5898 119.484 44.7264 119.47 44.8977C119.435 45.2787 119.386 45.8122 119.323 46.4908C119.289 46.838 119.252 47.2218 119.211 47.6411C119.182 48.0637 119.15 48.5214 119.116 49.0128C119.056 49.9975 118.955 51.1165 118.928 52.3581C118.906 52.9787 118.882 53.6287 118.858 54.3054C118.834 54.9826 118.847 55.6879 118.839 56.4175C118.811 57.8772 118.871 59.4361 118.915 61.0769C119.061 64.3557 119.347 67.9561 119.862 71.7099C120.397 75.4595 121.107 78.9999 121.866 82.1922C122.276 83.781 122.644 85.2969 123.072 86.6929C123.28 87.3926 123.464 88.073 123.67 88.7189C123.879 89.3629 124.081 89.9811 124.273 90.5717C124.641 91.7581 125.045 92.8064 125.375 93.7358C125.543 94.1987 125.699 94.6302 125.844 95.0285C125.999 95.4202 126.14 95.7787 126.269 96.1035C126.516 96.7385 126.71 97.2374 126.849 97.594C126.909 97.755 126.957 97.8837 126.995 97.9843C127.028 98.0719 127.042 98.1182 127.038 98.1196Z" fill="#6F4439"/>
<path d="M113.125 100.981C113.121 100.981 113.11 100.938 113.091 100.852C113.071 100.752 113.047 100.626 113.016 100.468C112.952 100.113 112.862 99.6186 112.749 98.991C112.52 97.7073 112.214 95.8451 111.871 93.5388C111.521 91.2334 111.166 88.4788 110.821 85.4143C110.497 82.3475 110.207 78.9686 110.025 75.4136C109.66 68.2996 109.875 61.8449 110.233 57.1949C110.418 54.8698 110.602 52.9913 110.772 51.6982C110.853 51.0655 110.916 50.567 110.962 50.2085C110.985 50.0499 111.003 49.9231 111.017 49.822C111.031 49.7349 111.04 49.6909 111.044 49.6914C111.049 49.6919 111.048 49.7373 111.042 49.8253C111.034 49.9268 111.023 50.055 111.011 50.2146C110.976 50.5741 110.928 51.0739 110.867 51.7085C110.725 53.0039 110.568 54.8834 110.405 57.207C110.092 61.8547 109.905 68.2982 110.269 75.4015C110.451 78.9508 110.734 82.326 111.045 85.3904C111.376 88.4526 111.714 91.2068 112.042 93.514C112.363 95.8222 112.642 97.6876 112.843 98.9756C112.937 99.6064 113.011 100.103 113.065 100.461C113.086 100.619 113.103 100.747 113.116 100.848C113.126 100.935 113.129 100.98 113.125 100.981Z" fill="#6F4439"/>
<path d="M147.068 94.293C147.069 94.2973 147.033 94.3076 146.962 94.3244C146.877 94.3427 146.774 94.3651 146.648 94.3923C146.351 94.4508 145.947 94.5299 145.436 94.6305C144.383 94.8327 142.859 95.1256 140.982 95.5131C137.225 96.2774 132.052 97.4235 126.406 98.9478C123.583 99.7181 120.914 100.516 118.499 101.284C116.093 102.079 113.932 102.816 112.147 103.511C111.247 103.843 110.444 104.167 109.74 104.457C109.033 104.738 108.426 104.988 107.937 105.207C107.459 105.411 107.08 105.573 106.802 105.692C106.683 105.74 106.585 105.78 106.504 105.812C106.436 105.838 106.4 105.85 106.399 105.846C106.397 105.842 106.429 105.823 106.493 105.79C106.571 105.752 106.665 105.705 106.781 105.648C107.055 105.518 107.428 105.343 107.898 105.121C108.382 104.888 108.984 104.626 109.687 104.331C110.387 104.03 111.188 103.693 112.084 103.351C113.865 102.634 116.023 101.879 118.429 101.071C120.843 100.289 123.516 99.4836 126.341 98.7128C131.995 97.1867 137.18 96.0658 140.948 95.3442C142.831 94.9782 144.361 94.711 145.419 94.5373C145.933 94.4559 146.34 94.3918 146.639 94.3441C146.767 94.3263 146.872 94.3118 146.958 94.3001C147.03 94.2912 147.068 94.2888 147.068 94.293Z" fill="#6F4439"/>
<g opacity="0.2">
<path d="M121.707 172.885C126.306 170.099 129.34 165.239 131.025 160.133C132.711 155.027 133.197 149.616 133.756 144.268C134.742 134.834 135.992 125.426 137.502 116.061C137.502 116.061 136.786 102.336 135.368 92.4941C133.95 82.6516 131.732 73.7586 130.95 74.2669C130.169 74.7747 119.703 168.616 119.703 168.616L121.707 172.885Z" fill="black"/>
</g>
<path d="M160.389 170.223C160.389 170.223 165.118 172.499 166.598 175.529C168.076 178.558 167.846 180.772 167.846 180.772L167.46 183.352C166.549 186.352 165.227 189.039 163.169 191.359C157.796 197.418 150.095 201.585 141.845 202.823C139.801 203.13 137.715 203.168 135.677 202.824C132.153 202.231 129.642 200.777 127.936 197.928C127.185 196.837 125.047 192.668 125.008 192.014L125.794 193.424C128.101 196.647 129.988 197.381 132.93 198.056C135.934 198.744 139.094 198.429 142.088 197.705C149.096 196.009 155.409 192.07 159.993 186.505C161.859 184.24 163.432 181.637 163.863 178.74C163.863 178.74 164.788 174.011 160.389 170.223Z" fill="#FF725E"/>
<g opacity="0.2">
<path d="M150.08 101.411C149.974 97.2088 147.23 91.8615 148.116 87.752C146.743 89.4995 146.685 91.9513 147.104 94.1336C147.523 96.3164 148.353 98.4219 148.545 100.636C148.742 102.895 148.266 105.154 148.163 107.419C148.059 109.685 148.402 112.132 149.938 113.801C149.447 109.555 150.201 106.177 150.08 101.411Z" fill="black"/>
</g>
<path d="M141.198 72.2493C141.212 72.2779 140.899 72.4641 140.365 72.7075C139.832 72.9513 139.074 73.2443 138.211 73.4862C137.348 73.7273 136.547 73.87 135.965 73.9383C135.382 74.0067 135.018 74.0095 135.016 73.9781C135.007 73.9046 136.441 73.7333 138.146 73.2518C139.852 72.7791 141.167 72.1824 141.198 72.2493Z" fill="#6F4439"/>
<path d="M139.107 60.5391C139.124 60.5601 138.84 60.8288 138.297 61.1461C137.757 61.4639 136.942 61.8027 135.99 61.9571C135.038 62.1083 134.158 62.0414 133.545 61.9085C132.93 61.7769 132.577 61.6103 132.586 61.5851C132.599 61.5041 134.092 62.0292 135.952 61.7161C137.816 61.432 139.069 60.4661 139.107 60.5391Z" fill="#6F4439"/>
<path d="M142.355 74.5669C142.369 74.6329 140.909 74.9979 139.094 75.3831C137.278 75.7683 135.795 76.0266 135.781 75.9606C135.767 75.8946 137.227 75.5296 139.043 75.1444C140.858 74.7597 142.341 74.5009 142.355 74.5669Z" fill="#6F4439"/>
<g opacity="0.2">
<path d="M142.796 73.5704C142.495 72.9152 141.673 72.7219 140.96 72.6082L140.639 72.4313C138.918 72.0359 137.058 72.2797 135.496 73.1048C135.088 73.3205 134.691 73.5831 134.422 73.9579C134.152 74.3328 134.031 74.8401 134.208 75.2665C134.441 75.8299 135.089 76.0855 135.683 76.2245C137.464 76.6419 139.365 76.5347 141.088 75.9198C141.603 75.7359 142.118 75.4967 142.482 75.0882C142.846 74.6796 143.025 74.067 142.796 73.5704Z" fill="#6F4439"/>
</g>
<path d="M128.424 74.1243C128.438 74.1529 128.125 74.3391 127.592 74.5825C127.059 74.8263 126.3 75.1193 125.438 75.3612C124.574 75.6023 123.774 75.745 123.191 75.8133C122.609 75.8817 122.245 75.8845 122.242 75.8531C122.234 75.7796 123.667 75.6079 125.372 75.1263C127.079 74.6541 128.393 74.0574 128.424 74.1243Z" fill="#6F4439"/>
<path d="M129.582 76.4419C129.596 76.5079 128.135 76.8734 126.32 77.2581C124.505 77.6433 123.022 77.9016 123.008 77.8356C122.994 77.7696 124.454 77.4046 126.27 77.0194C128.085 76.6347 129.568 76.3759 129.582 76.4419Z" fill="#6F4439"/>
<g opacity="0.2">
<path d="M130.015 75.4454C129.714 74.7902 128.892 74.5969 128.179 74.4832L127.858 74.3063C126.137 73.9109 124.277 74.1547 122.715 74.9798C122.307 75.1955 121.909 75.4581 121.64 75.8329C121.371 76.2078 121.25 76.7151 121.427 77.1415C121.66 77.7049 122.308 77.9605 122.902 78.0995C124.683 78.5169 126.583 78.4097 128.307 77.7948C128.822 77.6109 129.337 77.3717 129.701 76.9632C130.064 76.5546 130.244 75.942 130.015 75.4454Z" fill="#6F4439"/>
</g>
<path d="M118.689 75.8275C118.703 75.856 118.391 76.0423 117.857 76.2857C117.324 76.5295 116.565 76.8225 115.703 77.0644C114.839 77.3054 114.039 77.4482 113.457 77.5165C112.874 77.5848 112.511 77.5876 112.508 77.5563C112.499 77.4828 113.933 77.3115 115.638 76.83C117.343 76.3573 118.658 75.7601 118.689 75.8275Z" fill="#6F4439"/>
<path d="M119.855 78.147C119.869 78.213 118.409 78.5785 116.594 78.9632C114.778 79.3483 113.295 79.6067 113.281 79.5407C113.267 79.4747 114.727 79.1097 116.543 78.7245C118.358 78.3398 119.841 78.081 119.855 78.147Z" fill="#6F4439"/>
<g opacity="0.2">
<path d="M120.281 77.1481C119.979 76.4929 119.157 76.2996 118.445 76.1859L118.124 76.0094C116.403 75.614 114.542 75.8578 112.98 76.6829C112.572 76.8986 112.175 77.1612 111.906 77.5361C111.637 77.9109 111.516 78.4182 111.693 78.8446C111.926 79.4081 112.574 79.6636 113.167 79.8026C114.948 80.22 116.849 80.1129 118.572 79.4979C119.087 79.314 119.603 79.0748 119.966 78.6663C120.33 78.2577 120.51 77.6451 120.281 77.1481Z" fill="#6F4439"/>
</g>
<path d="M163.242 100.459C163.255 100.525 162.093 100.813 160.645 101.103C159.197 101.393 158.013 101.574 158 101.508C157.987 101.442 159.15 101.154 160.598 100.864C162.045 100.574 163.229 100.393 163.242 100.459Z" fill="#6F4439"/>
<path d="M161.634 98.9825C161.646 99.0485 161.123 99.2053 160.465 99.3326C159.807 99.4599 159.263 99.5095 159.25 99.4435C159.238 99.3775 159.76 99.2207 160.419 99.0934C161.077 98.9662 161.621 98.9161 161.634 98.9825Z" fill="#6F4439"/>
<g opacity="0.2">
<path d="M158.675 87.0465C158.363 87.4611 157.577 87.7316 157.189 87.3872C156.801 87.0427 156.638 86.5158 156.511 86.0127C155.959 83.8205 155.748 81.5442 155.869 79.287C155.895 78.8195 155.941 78.3309 156.193 77.9364C156.445 77.5419 156.969 77.2807 157.396 77.4726L158.675 87.0465Z" fill="white"/>
</g>
<path d="M109.84 210.772C109.84 210.772 116.385 207.953 108.684 205.876C100.983 203.799 92.8906 204.969 92.8906 204.969L102.765 210.466L109.84 210.772Z" fill="#FF725E"/>
<path opacity="0.3" d="M109.84 210.772C109.84 210.772 116.385 207.953 108.684 205.876C100.983 203.799 92.8906 204.969 92.8906 204.969L102.765 210.466L109.84 210.772Z" fill="black"/>
<path d="M43.9092 109.246C43.9092 109.246 38.7022 110.675 41.4639 115.679C43.4847 119.34 45.6174 123.244 46.8056 129.052C47.3345 131.636 50.413 134.739 51.4234 136.843C54.134 142.491 56.6392 147.189 60.7057 151.933C64.7721 156.677 77.4227 165.036 77.1971 170.909C76.971 176.782 60.7675 214.144 60.7675 214.144C73.4662 221.879 88.0748 224.364 103.69 224.084C103.69 224.084 114.923 183.334 116.505 177.009C118.086 170.683 124.257 165.382 128.324 155.894C132.39 146.405 133.672 125.897 134.126 109.688C134.506 96.1024 131.488 81.3094 131.427 76.7445C131.402 74.9423 131.131 73.1466 130.531 71.4472C129.56 68.6935 127.57 65.5359 123.568 65.7943C123.568 65.7943 123.618 53.4718 121.541 49.2196C120.778 47.6593 118.191 46.7223 116.21 47.2053C114.608 47.5961 113.435 48.468 113.435 48.468C113.435 48.468 114.424 38.669 109.454 37.7653C107.189 37.3535 105.036 37.6857 103.741 39.6331C102.195 41.9586 101.532 45.6979 101.286 49.7555C101.286 49.7555 100.797 47.3233 96.8114 47.3233C94.2594 47.3233 92.2662 49.2271 91.2038 53.2121C89.3964 59.9892 80.9696 99.3073 79.4566 104.267C78.3938 107.751 70.1944 132.054 67.9354 132.054C65.6763 132.054 63.3115 130.02 61.9562 126.405C60.5995 122.791 53.623 106.309 43.9092 109.246Z" fill="#FFBF9D"/>
<path d="M90.5628 103.992C90.5595 103.989 90.588 103.948 90.6461 103.869C90.713 103.78 90.7991 103.666 90.9077 103.521C91.1463 103.202 91.4819 102.753 91.9092 102.182C92.3383 101.596 92.8574 100.875 93.4302 100.019C93.9946 99.1596 94.6456 98.1745 95.1814 97.0017C95.4571 96.4167 95.6125 95.7694 95.7 95.0642C95.8109 94.3673 95.8891 93.6335 95.9733 92.8758C96.1399 91.359 96.2775 89.7327 96.4282 88.0226C96.7127 84.5978 97.0254 80.8355 97.3539 76.8856C97.4419 75.8977 97.5336 74.9219 97.6403 73.9611C97.7377 73.0045 97.8664 72.0442 98.0695 71.1311C98.4345 69.3087 98.684 67.5167 98.946 65.8216C99.437 62.4254 99.8788 59.3656 100.251 56.7897C100.614 54.2298 100.907 52.1523 101.113 50.6973C101.217 49.9911 101.298 49.4365 101.356 49.042C101.385 48.8637 101.408 48.7223 101.425 48.6123C101.442 48.5159 101.453 48.4663 101.457 48.4668C101.461 48.4673 101.459 48.5178 101.45 48.6152C101.438 48.7261 101.424 48.8688 101.405 49.0481C101.358 49.444 101.292 50.0004 101.207 50.7095C101.02 52.1673 100.752 54.248 100.422 56.8126C100.08 59.388 99.6658 62.4539 99.1683 65.8544C98.9109 67.5546 98.6685 69.3377 98.3025 71.1821C98.1018 72.0947 97.9791 73.0232 97.8813 73.9873C97.7756 74.9453 97.6843 75.9201 97.5963 76.9072C97.2612 80.8561 96.9421 84.6175 96.6514 88.0418C96.4947 89.7528 96.3496 91.3787 96.1741 92.8978C96.0851 93.6573 96.0023 94.3907 95.8858 95.0936C95.795 95.7952 95.6242 96.4831 95.3387 97.0723C94.7836 98.2601 94.121 99.2387 93.5434 100.095C92.958 100.947 92.4273 101.662 91.9855 102.239C91.5427 102.816 91.1899 103.256 90.9465 103.552C90.83 103.69 90.7378 103.799 90.6657 103.885C90.6011 103.958 90.5656 103.995 90.5628 103.992Z" fill="#FF9A6C"/>
<path d="M124.495 65.6943C124.496 65.6985 124.456 65.7167 124.376 65.749C124.283 65.7846 124.167 65.8295 124.022 65.8852C123.868 65.9465 123.692 66.0565 123.476 66.166C123.282 66.3111 123.038 66.4534 122.82 66.6822C122.362 67.1114 121.915 67.7572 121.591 68.5917C121.259 69.4233 121.047 70.4328 120.945 71.5583C120.724 73.8145 120.936 76.5233 121.301 79.5007C121.465 80.9941 121.738 82.5484 121.776 84.2051C121.775 85.0236 121.77 85.8581 121.714 86.707C121.663 87.5597 121.481 88.411 121.317 89.2571C121.158 90.108 121 90.9508 120.926 91.7834C120.848 92.6188 120.829 93.45 120.825 94.2652C120.818 95.8976 120.883 97.4733 120.956 98.9738C121.036 100.474 121.113 101.9 121.184 103.236C121.259 104.574 121.224 105.826 121.182 106.962C121.093 109.236 120.964 111.071 120.871 112.34C120.82 112.959 120.78 113.448 120.751 113.8C120.735 113.954 120.723 114.079 120.712 114.179C120.702 114.264 120.695 114.307 120.691 114.307C120.687 114.307 120.686 114.263 120.688 114.177C120.691 114.078 120.696 113.952 120.702 113.797C120.72 113.444 120.745 112.955 120.776 112.335C120.84 111.065 120.943 109.228 121.01 106.957C121.04 105.821 121.065 104.579 120.982 103.247C120.903 101.911 120.819 100.486 120.731 98.9859C120.652 97.4841 120.582 95.9051 120.586 94.2652C120.588 93.4453 120.606 92.6094 120.684 91.7623C120.759 90.911 120.918 90.0663 121.077 89.2122C121.243 88.3572 121.421 87.5269 121.471 86.6902C121.527 85.8534 121.534 85.0217 121.536 84.2055C121.503 82.5886 121.236 81.0208 121.077 79.5279C120.724 76.5434 120.528 73.8188 120.772 71.5415C120.887 70.4056 121.114 69.384 121.464 68.5411C121.806 67.6959 122.277 67.0407 122.755 66.613C122.983 66.3846 123.236 66.2446 123.438 66.1038C123.662 65.9989 123.844 65.8941 124.003 65.8398C124.152 65.793 124.273 65.7551 124.368 65.7252C124.451 65.7004 124.493 65.6901 124.495 65.6943Z" fill="#FF9A6C"/>
<path d="M108.423 105.319C108.418 105.32 108.391 105.254 108.342 105.121C108.29 104.975 108.22 104.779 108.132 104.528C107.947 103.986 107.682 103.211 107.34 102.208L107.336 102.198L107.337 102.186C107.551 99.8342 107.876 96.2624 108.274 91.8885C108.371 90.7911 108.493 89.6445 108.584 88.4557C108.672 87.2651 108.72 86.0268 108.782 84.7506C108.85 83.4753 108.904 82.1574 109.127 80.8184C109.185 80.4843 109.257 80.1492 109.354 79.8169C109.398 79.6498 109.469 79.4879 109.525 79.3227L109.69 78.85C109.875 78.1986 110.007 77.52 110.129 76.8348C110.461 74.8767 110.682 72.9443 110.86 71.077C111.035 69.2092 111.169 67.4032 111.226 65.6819C111.239 62.2271 111.579 59.1234 111.876 56.5316C112.189 53.9384 112.532 51.8497 112.865 50.4251C113.031 49.7133 113.194 49.1667 113.35 48.8119C113.427 48.6341 113.504 48.5073 113.562 48.4258C113.631 48.3523 113.667 48.3172 113.669 48.3205C113.672 48.3238 113.642 48.365 113.582 48.4403C113.533 48.5246 113.464 48.6523 113.396 48.8306C113.256 49.1863 113.109 49.7339 112.958 50.4457C112.655 51.8708 112.338 53.9599 112.048 56.5517C111.773 59.1454 111.452 62.2365 111.452 65.6889C111.4 67.4177 111.271 69.227 111.099 71.0995C110.924 72.9715 110.705 74.9067 110.371 76.8765C110.248 77.5668 110.115 78.2501 109.924 78.9193C109.812 79.2595 109.686 79.5745 109.588 79.8862C109.494 80.2058 109.424 80.5325 109.366 80.8596C109.145 82.1742 109.088 83.4893 109.017 84.7623C108.952 86.0371 108.9 87.2773 108.807 88.4721C108.712 89.6683 108.585 90.8135 108.481 91.9096C108.043 96.2788 107.685 99.8469 107.449 102.196L107.447 102.173C107.767 103.183 108.015 103.964 108.188 104.51C108.265 104.764 108.326 104.963 108.372 105.112C108.41 105.248 108.427 105.317 108.423 105.319Z" fill="#FF9A6C"/>
<path d="M117.799 83.9529C117.808 83.9623 117.749 84.047 117.585 84.1149C117.422 84.1851 117.164 84.2061 116.869 84.1968C116.273 84.1898 115.448 84.1387 114.548 84.0021C113.647 83.8668 112.843 83.6764 112.272 83.5069C111.7 83.338 111.358 83.1985 111.367 83.1681C111.388 83.0988 112.8 83.4976 114.584 83.7611C115.475 83.8963 116.287 83.9735 116.877 84.0245C117.172 84.0554 117.401 84.0601 117.556 84.0241C117.711 83.9908 117.787 83.937 117.799 83.9529Z" fill="#FF9A6C"/>
<path d="M118.908 86.677C118.91 86.7065 118.439 86.7748 117.671 86.7931C116.904 86.8122 115.839 86.7645 114.68 86.5754C113.521 86.3845 112.497 86.0892 111.776 85.8262C111.054 85.5636 110.63 85.3488 110.641 85.3212C110.655 85.2866 111.101 85.4438 111.83 85.6624C112.558 85.8814 113.576 86.1463 114.719 86.3349C115.863 86.5211 116.912 86.5956 117.672 86.6204C118.433 86.6466 118.906 86.6396 118.908 86.677Z" fill="#FF9A6C"/>
<path d="M118.916 81.2736C118.896 81.3476 117.251 80.8468 115.154 80.6666C113.058 80.4729 111.351 80.675 111.344 80.5988C111.34 80.5688 111.762 80.4794 112.456 80.4167C113.149 80.3535 114.115 80.3301 115.176 80.4242C116.236 80.5197 117.183 80.7129 117.854 80.8983C118.526 81.0822 118.926 81.2446 118.916 81.2736Z" fill="#FF9A6C"/>
<path d="M130.183 94.6423C130.191 94.6718 129.828 94.8065 129.22 94.9455C128.613 95.085 127.757 95.2146 126.803 95.239C125.849 95.2614 124.987 95.1739 124.374 95.0649C123.76 94.9558 123.392 94.8393 123.399 94.8093C123.413 94.734 124.918 95.0485 126.798 94.9956C128.676 94.9558 130.165 94.5679 130.183 94.6423Z" fill="#FF9A6C"/>
<path d="M128.32 93.4355C128.316 93.5024 127.347 93.4963 126.156 93.421C124.965 93.3461 124.004 93.2305 124.008 93.1636C124.012 93.0966 124.981 93.1027 126.171 93.1781C127.362 93.253 128.324 93.3685 128.32 93.4355Z" fill="#FF9A6C"/>
<path d="M128.061 97.0343C128.076 97.0975 127.495 97.2809 126.75 97.3081C126.005 97.338 125.412 97.2 125.422 97.1358C125.431 97.0666 126.02 97.0942 126.741 97.0647C127.462 97.039 128.047 96.966 128.061 97.0343Z" fill="#FF9A6C"/>
<path d="M106.237 77.5091C106.252 77.5671 104.982 77.8596 103.393 77.7562C101.803 77.6621 100.58 77.2147 100.602 77.1585C100.622 77.0865 101.851 77.4211 103.408 77.5128C104.964 77.6153 106.226 77.4356 106.237 77.5091Z" fill="#FF9A6C"/>
<path d="M106.415 79.8059C106.425 79.8326 106.039 80.0024 105.38 80.1658C104.722 80.33 103.784 80.4667 102.745 80.4372C101.705 80.4054 100.777 80.214 100.13 80.0109C99.4815 79.8087 99.1066 79.6168 99.1174 79.5906C99.1403 79.5129 100.708 80.1442 102.752 80.1934C104.795 80.265 106.397 79.7273 106.415 79.8059Z" fill="#FF9A6C"/>
<path d="M107.739 75.2917C107.713 75.3236 107.387 75.046 106.777 74.7484C106.17 74.4437 105.269 74.1629 104.242 73.9884C103.214 73.8143 102.266 73.7057 101.589 73.5587C100.91 73.4193 100.507 73.2676 100.516 73.2381C100.526 73.203 100.94 73.2943 101.618 73.3893C102.296 73.4918 103.241 73.5723 104.284 73.7487C105.327 73.9256 106.253 74.242 106.857 74.5963C107.467 74.9435 107.758 75.2739 107.739 75.2917Z" fill="#FF9A6C"/>
<path d="M90.8394 80.3236C90.8468 80.3882 89.9225 80.5393 88.7713 80.5379C87.6195 80.5393 86.6957 80.3882 86.7032 80.3236C86.7102 80.2543 87.634 80.2955 88.7713 80.2941C89.908 80.296 90.8323 80.2543 90.8394 80.3236Z" fill="#FF9A6C"/>
<path d="M92.4008 82.4913C92.412 82.5184 92.1546 82.6607 91.7011 82.7978C91.2495 82.9368 90.5999 83.0482 89.8815 83.0697C88.4419 83.0992 87.3 82.8994 87.3047 82.8465C87.3094 82.7655 88.4653 82.8558 89.8736 82.8263C91.2883 82.809 92.3769 82.429 92.4008 82.4913Z" fill="#FF9A6C"/>
<g opacity="0.2">
<path d="M99.9179 50.6063C99.9264 51.7455 99.7841 52.7357 99.3699 53.8135C98.9557 54.8913 98.5631 55.5161 97.6776 55.9823C97.0701 56.3019 96.3953 56.3595 95.7466 56.2804C95.0493 56.1952 94.3309 55.928 93.8714 55.2849C93.4315 54.669 93.2953 53.8107 93.1755 52.9941C93.0514 52.1512 92.9344 51.2377 93.2457 50.4575C93.468 49.9006 93.8821 49.492 94.3216 49.1916C95.7972 48.1816 97.3308 48.3688 99.0334 48.9112C99.3531 49.0133 99.6109 49.2856 99.7335 49.6437C99.8285 49.9212 99.9156 50.2666 99.9179 50.6063Z" fill="white"/>
</g>
<g opacity="0.2">
<path d="M120.215 50.6063C120.223 51.7455 120.081 52.7357 119.667 53.8135C119.253 54.8913 118.86 55.5161 117.974 55.9823C117.367 56.3019 116.692 56.3595 116.043 56.2804C115.346 56.1952 114.628 55.928 114.168 55.2849C113.728 54.669 113.592 53.8107 113.472 52.9941C113.348 52.1512 113.231 51.2377 113.543 50.4575C113.765 49.9006 114.179 49.492 114.618 49.1916C116.094 48.1816 117.628 48.3688 119.33 48.9112C119.65 49.0133 119.908 49.2856 120.03 49.6437C120.125 49.9212 120.212 50.2666 120.215 50.6063Z" fill="white"/>
</g>
<g opacity="0.2">
<path d="M121.985 70.1005C121.976 71.2396 122.119 72.2299 122.533 73.3077C122.947 74.3855 123.34 75.0103 124.225 75.4764C124.832 75.796 125.507 75.8536 126.156 75.7745C126.853 75.6893 127.572 75.4226 128.031 74.7791C128.471 74.1632 128.607 73.3049 128.728 72.4882C128.852 71.6453 128.969 70.7318 128.657 69.9517C128.435 69.3947 128.021 68.9862 127.581 68.6857C126.105 67.6758 124.572 67.863 122.869 68.4054C122.55 68.5074 122.292 68.7798 122.169 69.1378C122.074 69.4153 121.988 69.7612 121.985 70.1005Z" fill="white"/>
</g>
<g opacity="0.2">
<path d="M111.539 41.6962C111.557 42.9031 111.398 43.9515 110.919 45.0906C110.44 46.2292 109.984 46.8886 108.947 47.3758C108.236 47.71 107.443 47.7661 106.682 47.6772C105.862 47.5817 105.016 47.2934 104.472 46.6083C103.951 45.9526 103.785 45.0419 103.638 44.1761C103.486 43.2822 103.342 42.3135 103.702 41.4888C103.959 40.9006 104.443 40.4705 104.956 40.155C106.682 39.096 108.484 39.3051 110.488 39.893C110.864 40.0034 111.169 40.294 111.315 40.674C111.429 40.9694 111.534 41.3363 111.539 41.6962Z" fill="white"/>
</g>
<path d="M66.884 136.844C66.8513 136.843 66.8237 136.553 66.8204 136.081C66.819 135.611 66.8405 134.956 66.972 134.241C67.1026 133.525 67.3478 132.9 67.5996 132.492C67.8481 132.082 68.0681 131.88 68.0887 131.898C68.12 131.922 67.952 132.159 67.7512 132.574C67.5472 132.988 67.3389 133.591 67.2116 134.286C66.9725 135.677 66.9697 136.848 66.884 136.844Z" fill="#FF9A6C"/>
<path d="M78.9137 161.395C78.8678 161.444 76.2068 159.021 72.9715 155.984C69.7353 152.946 67.1496 150.444 67.1959 150.395C67.2418 150.346 69.9019 152.769 73.1386 155.807C76.3739 158.843 78.9596 161.346 78.9137 161.395Z" fill="#FF9A6C"/>
<path d="M52.9472 126.911C52.9725 126.982 51.8194 127.385 50.5637 128.188C49.3015 128.982 48.4455 129.853 48.3927 129.801C48.3449 129.764 49.1401 128.797 50.4336 127.983C51.7206 127.16 52.9346 126.853 52.9472 126.911Z" fill="#FF9A6C"/>
<path d="M55.7813 125.897C55.8024 125.877 55.9653 126.423 55.6124 127.181C55.4458 127.554 55.1748 127.959 54.8421 128.37C54.5126 128.785 54.1265 129.224 53.6922 129.655C52.8236 130.519 51.9274 131.182 51.2488 131.606C50.5706 132.032 50.1157 132.232 50.1022 132.207C50.0834 132.173 50.5065 131.921 51.1528 131.462C51.8001 131.007 52.6649 130.333 53.52 129.482C54.3619 128.625 55.0967 127.794 55.4565 127.106C55.83 126.411 55.7369 125.895 55.7813 125.897Z" fill="#FF9A6C"/>
<path d="M50.4033 124.072C50.4449 124.127 49.6821 124.765 48.7709 125.581C47.8578 126.395 47.1385 127.082 47.0884 127.034C47.0407 126.99 47.6865 126.222 48.6085 125.399C49.5286 124.575 50.3649 124.019 50.4033 124.072Z" fill="#FF9A6C"/>
<path opacity="0.2" d="M44.6024 119.918C44.8251 119.993 49.2239 117.321 48.7039 115.762C48.184 114.203 45.171 110.015 43.5367 110.183C41.9025 110.351 41.119 111.743 41.2679 113.526C41.4162 115.308 44.6024 119.918 44.6024 119.918Z" fill="white"/>
<g opacity="0.2">
<path d="M96.0124 93.1648L99.118 64.2578C96.2141 73.2392 95.3375 83.6447 96.0124 93.1648Z" fill="black"/>
</g>
<g opacity="0.2">
<path d="M107.726 97.1788C107.488 87.2848 108.62 77.359 111.082 67.7734C111.293 70.3732 110.593 74.9025 109.922 78.0049C109.578 79.5975 109.174 79.94 109.043 81.2724C108.206 89.8022 108.392 91.8385 107.726 97.1788Z" fill="black"/>
</g>
<path opacity="0.4" d="M67.9053 215.798C67.9053 215.798 82.7826 174.624 82.1559 167.731C81.5293 160.837 77.4301 160.002 73.0543 155.894C68.6935 151.8 52.144 138.192 52.0312 138.1C54.5177 143.192 56.9434 147.549 60.7019 151.934C64.7683 156.678 77.4188 165.036 77.1933 170.91C76.9672 176.784 60.7637 214.144 60.7637 214.144L67.9053 215.798Z" fill="#FF9A6C"/>
<g opacity="0.4">
<path d="M121.062 107.903C119.489 97.7164 119.382 87.3043 120.747 77.0879C121.386 79.7695 121.627 82.5457 121.46 85.2971C121.304 87.8711 120.793 90.4109 120.559 92.9793C120.183 97.1122 120.524 101.274 120.865 105.41" fill="#FF9A6C"/>
</g>
<g opacity="0.2">
<path d="M115.738 80.7128C114.3 79.7834 112.16 80.198 111.173 81.5983C110.186 82.9981 110.515 85.1537 111.874 86.1959C112.72 86.845 113.822 87.0538 114.884 87.1455C115.685 87.2148 116.505 87.2269 117.276 87.0028C118.048 86.7781 118.772 86.2876 119.124 85.5651C119.589 84.6094 119.318 83.4286 118.722 82.5488C117.844 81.2492 116.272 80.4498 114.704 80.505" fill="#FF9A6C"/>
</g>
<g opacity="0.2">
<path d="M91.4572 79.0839C90.019 78.1545 87.8784 78.5691 86.8914 79.9694C85.9048 81.3692 86.2334 83.5248 87.5925 84.567C88.4391 85.2161 89.5403 85.4249 90.6031 85.5166C91.4034 85.5859 92.2238 85.598 92.995 85.3738C93.7663 85.1492 94.4908 84.6587 94.8422 83.9362C95.3074 82.981 95.036 81.7997 94.4407 80.9199C93.5618 79.6203 91.9902 78.8209 90.4224 78.8761" fill="#FF9A6C"/>
</g>
<g opacity="0.2">
<path d="M104.231 73.8611C102.792 72.6804 100.652 73.2073 99.6648 74.9857C98.6783 76.7641 99.0068 79.5024 100.366 80.8264C101.213 81.651 102.314 81.9159 103.377 82.0329C104.177 82.1208 104.997 82.1363 105.768 81.8513C106.54 81.5658 107.264 80.9429 107.616 80.0251C108.081 78.8116 107.81 77.3112 107.215 76.1932C106.336 74.5425 104.764 73.527 103.196 73.5967" fill="#FF9A6C"/>
</g>
<g opacity="0.2">
<path d="M127.645 91.916C126.207 90.9865 124.066 91.4012 123.079 92.801C122.092 94.2008 122.421 96.3564 123.78 97.3986C124.627 98.0477 125.728 98.2564 126.791 98.3482C127.591 98.4174 128.411 98.4296 129.183 98.2054C129.954 97.9808 130.678 97.4903 131.03 96.7677C131.495 95.8125 131.224 94.6318 130.629 93.7515C129.75 92.4518 128.178 91.6525 126.61 91.7077" fill="#FF9A6C"/>
</g>
<g opacity="0.3">
<path d="M99.4298 53.1094C99.4447 53.1145 99.4181 53.2549 99.3427 53.502C99.2664 53.7482 99.1471 54.1043 98.9412 54.5218C98.7357 54.9364 98.4423 55.4259 97.9668 55.8425C97.4997 56.2609 96.808 56.5515 96.0756 56.5314C95.3437 56.5229 94.6618 56.2318 94.1961 55.8064C93.7239 55.3834 93.4487 54.8714 93.2952 54.4296C93.1464 53.9822 93.1118 53.5998 93.1178 53.3396C93.1235 53.0785 93.1604 52.9381 93.1731 52.9395C93.2231 52.9362 93.1319 53.5254 93.4567 54.3701C93.6228 54.7834 93.8994 55.2556 94.3435 55.6375C94.7806 56.0208 95.4064 56.2796 96.0789 56.288C96.7537 56.3049 97.3776 56.0507 97.8208 55.6716C98.2705 55.2944 98.5691 54.8363 98.7881 54.4422C99.2178 53.6429 99.3881 53.0939 99.4298 53.1094Z" fill="white"/>
</g>
<g opacity="0.3">
<path d="M111.246 43.4943C111.26 43.4976 111.243 43.6736 111.173 43.9848C111.103 44.2955 110.981 44.7439 110.751 45.2709C110.519 45.7931 110.176 46.4039 109.628 46.9468C109.089 47.492 108.307 47.9352 107.417 48.048C106.531 48.1804 105.628 47.9216 105.044 47.3937C104.452 46.8719 104.174 46.2017 104.004 45.6607C103.837 45.1099 103.766 44.6526 103.723 44.3377C103.681 44.0222 103.671 43.8463 103.687 43.8435C103.735 43.8327 103.818 44.5408 104.167 45.6064C104.354 46.1273 104.638 46.7544 105.191 47.2238C105.734 47.697 106.555 47.9291 107.385 47.8065C108.219 47.6998 108.951 47.295 109.471 46.7858C110.001 46.2785 110.349 45.6995 110.595 45.1988C111.075 44.1832 111.199 43.4812 111.246 43.4943Z" fill="#FF9A6C"/>
</g>
<g opacity="0.3">
<path d="M120.304 52.2036C120.331 52.2195 120.1 52.7568 119.844 53.6801C119.703 54.1364 119.548 54.6971 119.214 55.261C118.892 55.8231 118.295 56.3538 117.539 56.5125C116.792 56.6856 116.041 56.5522 115.455 56.2579C114.87 55.9579 114.448 55.5283 114.162 55.1361C113.872 54.7415 113.712 54.3779 113.616 54.1261C113.524 53.8711 113.498 53.7236 113.511 53.719C113.555 53.6993 113.716 54.2885 114.298 55.0312C114.591 55.3953 115.004 55.788 115.555 56.0566C116.102 56.3187 116.8 56.4343 117.483 56.2752C118.174 56.1273 118.706 55.6649 119.023 55.1431C119.347 54.6213 119.519 54.0751 119.68 53.6268C119.978 52.7151 120.273 52.1853 120.304 52.2036Z" fill="white"/>
</g>
<g opacity="0.3">
<path d="M128.968 71.4122C128.984 71.4145 128.98 71.5591 128.953 71.8184C128.924 72.0772 128.88 72.453 128.773 72.9107C128.668 73.3661 128.499 73.9146 128.154 74.4486C127.817 74.9849 127.249 75.4669 126.548 75.7014C125.85 75.9392 125.11 75.9214 124.509 75.7014C123.905 75.4852 123.453 75.1005 123.157 74.7289C122.859 74.355 122.705 73.9941 122.631 73.7414C122.56 73.4864 122.555 73.3394 122.568 73.3371C122.615 73.3179 122.688 73.9263 123.289 74.6175C123.585 74.9559 124.021 75.3008 124.583 75.4889C125.141 75.6808 125.822 75.6902 126.47 75.4702C127.12 75.2507 127.64 74.8197 127.967 74.3232C128.301 73.8294 128.483 73.3076 128.607 72.8667C128.844 71.9789 128.926 71.4042 128.968 71.4122Z" fill="white"/>
</g>
<path d="M45.0063 110.892C44.9885 110.929 44.7166 110.789 44.2472 110.718C43.7848 110.645 43.1025 110.675 42.4749 111.018C41.8483 111.363 41.4551 111.922 41.2684 112.351C41.0746 112.784 41.0475 113.089 41.0068 113.084C40.981 113.085 40.945 112.767 41.1083 112.287C41.2647 111.815 41.6671 111.185 42.3584 110.804C43.051 110.427 43.7989 110.427 44.2804 110.549C44.7723 110.67 45.0213 110.871 45.0063 110.892Z" fill="#FF9A6C"/>
<path d="M66.1654 200.061L60.7656 214.145C84.043 228.617 106.009 224.106 106.009 224.106L112.029 209.304C96.7965 211.126 80.8807 208.708 66.1654 200.061Z" fill="#FF725E"/>
<path opacity="0.2" d="M73.3726 213.452C72.7174 214.944 70.9769 215.623 69.4845 214.968C67.992 214.313 67.3134 212.573 67.9682 211.08C68.6234 209.588 70.3639 208.909 71.8563 209.564C73.3488 210.219 74.0278 211.96 73.3726 213.452Z" fill="black"/>
<path d="M73.6207 211.109C73.6207 212.739 72.2995 214.06 70.67 214.06C69.0404 214.06 67.7188 212.739 67.7188 211.109C67.7188 209.479 69.0399 208.158 70.67 208.158C72.2995 208.158 73.6207 209.479 73.6207 211.109Z" fill="white"/>
<path d="M73.0461 211.15C73.032 211.152 73.0461 210.94 72.9539 210.58C72.8626 210.226 72.6263 209.706 72.0937 209.304C71.5793 208.901 70.7271 208.672 69.9002 208.978C69.0798 209.258 68.3698 210.131 68.3787 211.15C68.3693 212.17 69.0798 213.043 69.9002 213.323C70.7276 213.629 71.5798 213.4 72.0941 212.997C72.6263 212.595 72.8631 212.075 72.9539 211.721C73.0461 211.361 73.032 211.149 73.0461 211.15C73.0461 211.15 73.0727 211.361 72.9908 211.731C72.9094 212.093 72.6782 212.631 72.1358 213.052C71.6121 213.474 70.7313 213.72 69.8697 213.407C69.0156 213.121 68.2715 212.213 68.2813 211.15C68.2715 210.087 69.0156 209.179 69.8697 208.893C70.7313 208.58 71.6121 208.826 72.1358 209.249C72.6782 209.67 72.9094 210.207 72.9908 210.57C73.0727 210.939 73.0461 211.15 73.0461 211.15Z" fill="#263238"/>
<path d="M70.5642 210.851C70.8542 210.851 71.0892 210.616 71.0892 210.326C71.0892 210.036 70.8542 209.801 70.5642 209.801C70.2742 209.801 70.0391 210.036 70.0391 210.326C70.0391 210.616 70.2742 210.851 70.5642 210.851Z" fill="#263238"/>
<path d="M71.2924 212.164C71.2924 212.454 71.057 212.689 70.7673 212.689C70.4776 212.689 70.2422 212.454 70.2422 212.164C70.2422 211.874 70.4776 211.639 70.7673 211.639C71.057 211.639 71.2924 211.874 71.2924 212.164Z" fill="#263238"/>
</svg>
